<?xml version="1.0" encoding="utf-8"?>
<!-- Generator: Adobe Illustrator 14.0.0, SVG Export Plug-In . SVG Version: 6.00 Build 43363)  -->
<!DOCTYPE svg PUBLIC "-//W3C//DTD SVG 1.1//EN" "http://www.w3.org/Graphics/SVG/1.1/DTD/svg11.dtd">
<svg version="1.1" id="Vrstva_1" xmlns="http://www.w3.org/2000/svg" xmlns:xlink="http://www.w3.org/1999/xlink" x="0px" y="0px"
	 width="565.954px" height="1696.75px" viewBox="0 0 565.954 1696.75" enable-background="new 0 0 565.954 1696.75"
	 xml:space="preserve">
<g>
	<g>
		
			<linearGradient id="SVGID_1_" gradientUnits="userSpaceOnUse" x1="-118.3423" y1="927.645" x2="-117.3423" y2="927.645" gradientTransform="matrix(-2.320368e-005 530.8383 530.8383 2.320368e-005 -492145.6875 63406.75)">
			<stop  offset="0" style="stop-color:#B3B3B3"/>
			<stop  offset="1" style="stop-color:#333333"/>
		</linearGradient>
		<path fill="url(#SVGID_1_)" d="M555.928,1082.146c0,21.407-17.354,38.761-38.762,38.761H49.1
			c-21.406,0-38.761-17.354-38.761-38.761V614.08c0-21.407,17.354-38.761,38.761-38.761h468.066
			c21.407,0,38.762,17.354,38.762,38.761V1082.146z"/>
		<path fill="#E6E6E6" d="M555.928,1082.146h-10c-0.002,3.999-0.805,7.757-2.256,11.192c-2.176,5.147-5.836,9.56-10.432,12.662
			c-4.603,3.103-10.083,4.902-16.074,4.906H49.1c-3.998-0.001-7.756-0.805-11.191-2.256c-5.148-2.176-9.561-5.836-12.663-10.432
			c-3.103-4.603-4.902-10.082-4.906-16.073V614.08c0.001-3.999,0.805-7.757,2.256-11.192c2.176-5.148,5.836-9.56,10.432-12.663
			c4.603-3.102,10.083-4.902,16.073-4.906h468.066c3.999,0.001,7.757,0.805,11.192,2.256c5.148,2.175,9.561,5.835,12.663,10.431
			c3.103,4.603,4.902,10.083,4.906,16.074v468.066H555.928h10V614.08c0.001-6.705-1.364-13.144-3.836-18.983
			c-3.709-8.763-9.879-16.188-17.656-21.444c-7.77-5.256-17.205-8.337-27.27-8.333H49.1c-6.705-0.001-13.144,1.364-18.982,3.836
			c-8.764,3.709-16.189,9.878-21.445,17.655c-5.256,7.771-8.337,17.206-8.333,27.27v468.066c-0.001,6.705,1.364,13.144,3.836,18.983
			c3.709,8.763,9.878,16.188,17.655,21.444c7.771,5.256,17.206,8.337,27.27,8.333h468.066c6.705,0.001,13.144-1.364,18.983-3.836
			c8.763-3.709,16.188-9.878,21.444-17.655c5.257-7.77,8.338-17.205,8.334-27.27H555.928z"/>
		<path fill="#FFFFFF" d="M242.407,1043.962c-11.744,0-22.869-5.481-29.996-14.932l-96.47-127.464
			c-12.555-16.551-9.288-40.122,7.29-52.677c16.605-12.607,40.176-9.287,52.73,7.291l63.476,83.806l159.594-256.279
			c10.988-17.604,34.209-23.003,51.865-12.015c17.632,10.962,23.058,34.182,12.043,51.839l-188.565,302.665
			c-6.533,10.556-17.846,17.145-30.238,17.711C243.541,1043.962,243,1043.962,242.407,1043.962z"/>
	</g>
	<g>
		<path fill="#FFFFFF" d="M555.589,516.828c0,21.406-17.355,38.76-38.762,38.76H48.761c-21.406,0-38.761-17.354-38.761-38.76V48.761
			C10,27.354,27.354,10,48.761,10h468.067c21.406,0,38.762,17.354,38.762,38.761V516.828z"/>
		<path fill="#666666" d="M555.589,516.828h-10c-0.002,3.999-0.805,7.756-2.256,11.191c-2.176,5.148-5.836,9.56-10.432,12.662
			c-4.604,3.103-10.084,4.902-16.074,4.906H48.761c-3.998-0.002-7.756-0.805-11.191-2.256c-5.148-2.176-9.561-5.836-12.663-10.431
			c-3.103-4.603-4.902-10.082-4.906-16.073V48.761c0.001-3.999,0.805-7.756,2.257-11.192c2.175-5.148,5.835-9.561,10.431-12.663
			C37.29,21.804,42.771,20.004,48.761,20h468.067c3.998,0.001,7.756,0.805,11.191,2.256c5.148,2.176,9.561,5.836,12.664,10.432
			c3.102,4.603,4.902,10.083,4.906,16.074v468.067H555.589h10V48.761c0-6.705-1.365-13.144-3.836-18.983
			c-3.709-8.763-9.879-16.188-17.656-21.444c-7.77-5.256-17.205-8.337-27.27-8.333H48.761c-6.705-0.001-13.144,1.364-18.982,3.836
			C21.015,7.545,13.59,13.714,8.333,21.491C3.077,29.262-0.004,38.697,0,48.761v468.067c-0.001,6.705,1.364,13.144,3.836,18.982
			c3.709,8.764,9.879,16.188,17.655,21.443c7.771,5.257,17.205,8.338,27.27,8.334h468.067c6.705,0.002,13.143-1.364,18.982-3.836
			c8.764-3.709,16.189-9.878,21.445-17.654c5.256-7.771,8.338-17.206,8.334-27.27H555.589z"/>
	</g>
	<g>
		<path fill="#B3B3B3" d="M555.953,1647.988c0,21.408-17.354,38.762-38.762,38.762H49.125c-21.406,0-38.761-17.354-38.761-38.762
			v-468.066c0-21.406,17.354-38.761,38.761-38.761h468.065c21.408,0,38.762,17.354,38.762,38.761V1647.988z"/>
		<path fill="#666666" d="M555.953,1647.988h-10c-0.002,3.999-0.805,7.757-2.256,11.192c-2.176,5.148-5.836,9.561-10.432,12.663
			c-4.602,3.103-10.082,4.902-16.074,4.906H49.125c-3.998-0.001-7.756-0.805-11.191-2.256c-5.148-2.176-9.561-5.836-12.663-10.432
			c-3.103-4.603-4.902-10.083-4.906-16.074v-468.066c0.001-3.998,0.805-7.756,2.256-11.191c2.176-5.148,5.836-9.561,10.432-12.663
			c4.603-3.103,10.083-4.902,16.073-4.906h468.065c4,0.001,7.758,0.805,11.193,2.256c5.148,2.176,9.561,5.836,12.662,10.432
			c3.104,4.603,4.902,10.083,4.906,16.073v468.066H555.953h10v-468.066c0.002-6.705-1.363-13.144-3.836-18.982
			c-3.709-8.764-9.879-16.188-17.656-21.444c-7.77-5.257-17.205-8.338-27.27-8.334H49.125c-6.705-0.001-13.144,1.364-18.982,3.836
			c-8.764,3.709-16.188,9.879-21.445,17.655c-5.256,7.771-8.337,17.205-8.333,27.27v468.066c-0.001,6.705,1.364,13.145,3.836,18.983
			c3.709,8.764,9.878,16.188,17.655,21.445c7.771,5.256,17.205,8.337,27.27,8.333h468.065c6.705,0.001,13.145-1.364,18.984-3.836
			c8.764-3.709,16.188-9.878,21.443-17.655c5.258-7.771,8.338-17.206,8.334-27.271H555.953z"/>
	</g>
</g>
</svg>
