<?xml version="1.0" encoding="utf-8"?>
<!-- Generator: Adobe Illustrator 14.0.0, SVG Export Plug-In . SVG Version: 6.00 Build 43363)  -->
<!DOCTYPE svg PUBLIC "-//W3C//DTD SVG 1.1//EN" "http://www.w3.org/Graphics/SVG/1.1/DTD/svg11.dtd">
<svg version="1.1" id="Vrstva_1" xmlns="http://www.w3.org/2000/svg" xmlns:xlink="http://www.w3.org/1999/xlink" x="0px" y="0px"
	 width="1748px" height="522.5px" viewBox="0 0 1748 522.5" enable-background="new 0 0 1748 522.5" xml:space="preserve">
<g>
	<path d="M1004.477,286.211c0,7.8-1.801,18-4.201,25.8c-12,36.001-41.4,57.001-75.6,57.001c-58.201,0-85.801-49.801-85.801-108.001
		c0-64.801,33-111.001,87.6-111.001c39.602,0,67.201,27.6,75.602,60c1.799,6.601,2.4,14.4,2.4,21.601V286.211z M1004.477,523.213
		h52.199V193.81c0-30,1.201-55.8,2.4-79.801h-49.801l-1.799,43.801h-1.201c-14.4-27.601-44.4-49.801-89.4-49.801
		c-61.201,0-131.402,47.4-131.402,156.602c0,88.201,55.201,146.401,123.002,146.401c46.801,0,78.602-22.8,94.801-51h1.201V523.213z
		 M535.878,231.011c4.2-36.601,27.001-85.201,81-85.201c59.402,0,73.801,52.2,73.201,85.201H535.878z M739.281,268.811
		c1.199-6,1.799-13.8,1.799-24.6c0-53.401-24.6-136.202-120-136.202c-84.601,0-136.202,68.401-136.202,156.002
		s53.4,147.001,142.801,147.001c46.201,0,78.602-10.199,97.201-18.6l-9.6-37.801c-19.201,8.4-42.602,15-80.4,15
		c-53.402,0-98.402-29.399-99.602-100.801H739.281z M315.677,404.412h52.801V249.61c0-8.4,0.6-17.4,1.8-24.6
		c7.2-39.601,33.601-67.201,70.801-67.201c7.2,0,12.6,0,18,1.2v-49.801c-4.8-0.6-9-1.2-14.4-1.2
		c-35.4,0-67.801,24.601-81.001,63.601h-1.8l-2.4-57.601h-46.201c1.8,27.001,2.4,56.401,2.4,90.602V404.412z M123.081,404.412h52.8
		V44.408h123.602v-44.4H0.08v44.4h123.001V404.412z"/>
	<polygon fill="#009EE0" points="353.104,-0.034 353.104,73.931 1057.994,73.931 1057.994,73.621 949.679,-0.034 	"/>
	<polygon fill="#53AA28" points="950.5,449.281 122.985,449.281 232.21,523.181 950.5,523.181 	"/>
	<path fill="#595959" d="M1552.942,136.736h-21.14v-17.251h22.436v-5.913h-29.563v54.59h30.777v-5.912h-23.65v-19.682h21.14V136.736
		z M1476.238,168.162h39.85v-5.912h-30.535v-0.243l30.129-44.142v-4.293h-36.852v5.913h27.619v0.242l-30.211,44.304V168.162z
		 M1452.423,101.181l-7.532,9.476h5.75l10.367-9.476H1452.423z M1440.679,145.484l5.345-15.794c1.135-3.321,1.944-6.723,2.754-9.882
		h0.162c0.811,3.159,1.62,6.398,2.835,9.963l5.427,15.713H1440.679z M1458.578,150.991l5.832,17.171h7.531l-18.628-54.59h-8.423
		l-18.629,54.59h7.289l5.67-17.171H1458.578z M1393.537,142.001h5.832c7.694,0,14.093,3.159,14.093,10.529
		c0,7.938-6.723,10.61-14.012,10.61c-2.511,0-4.455-0.081-5.913-0.324V142.001z M1393.537,119.08
		c1.135-0.243,2.997-0.486,6.236-0.486c7.128,0,11.906,2.592,11.906,8.909c0,5.265-4.373,9.233-11.744,9.233h-6.398V119.08z
		 M1386.491,168c2.349,0.324,6.074,0.648,10.935,0.648c8.908,0,15.064-1.62,18.79-5.103c2.835-2.592,4.697-6.237,4.697-10.935
		c0-8.1-6.074-12.392-11.258-13.607v-0.242c5.669-2.025,9.233-6.642,9.233-11.987c0-4.293-1.782-7.532-4.617-9.639
		c-3.32-2.753-7.855-3.969-14.902-3.969c-4.859,0-9.801,0.486-12.878,1.216V168z M1347.205,145.484l5.346-15.794
		c1.135-3.321,1.943-6.723,2.754-9.882h0.162c0.811,3.159,1.619,6.398,2.835,9.963l5.427,15.713H1347.205z M1365.105,150.991
		l5.831,17.171h7.532l-18.629-54.59h-8.423l-18.628,54.59h7.289l5.67-17.171H1365.105z M1313.104,168.162h7.128v-48.596h16.685
		v-5.994h-40.416v5.994h16.604V168.162z M1269.689,145.484l5.345-15.794c1.134-3.321,1.944-6.723,2.754-9.882h0.162
		c0.81,3.159,1.62,6.398,2.835,9.963l5.426,15.713H1269.689z M1287.588,150.991l5.832,17.171h7.532l-18.628-54.59h-8.424
		l-18.629,54.59h7.29l5.669-17.171H1287.588z M1213.638,119.485c1.862-0.405,4.616-0.729,8.261-0.729
		c14.903,0,22.193,8.181,22.111,21.059c0,14.74-8.1,23.164-23.244,23.164c-2.754,0-5.346-0.081-7.128-0.324V119.485z M1206.591,168
		c3.563,0.405,7.694,0.648,12.798,0.648c10.609,0,19.033-2.754,24.217-7.856c5.021-5.021,7.855-12.312,7.855-21.221
		c0-8.828-2.834-15.146-7.775-19.601c-4.777-4.373-11.986-6.804-22.111-6.804c-5.588,0-10.69,0.486-14.983,1.216V168z"/>
	<path fill="#595959" d="M1707.569,231.572v54.59h7.128v-25.594h26.403v25.594h7.128v-54.59h-7.128v22.84h-26.403v-22.84H1707.569z
		 M1697.361,278.792c-2.835,1.377-7.209,2.268-11.582,2.268c-13.202,0-20.896-8.505-20.896-21.949
		c0-14.336,8.504-22.517,21.301-22.517c4.536,0,8.343,0.973,10.935,2.268l1.782-5.75c-1.863-0.972-6.236-2.43-12.959-2.43
		c-16.928,0-28.51,11.501-28.51,28.672c0,17.98,11.501,27.699,26.89,27.699c6.642,0,11.906-1.296,14.417-2.592L1697.361,278.792z
		 M1639.529,219.585l-7.532,9.477h5.751l10.367-9.477H1639.529z M1639.043,286.162v-23.245l18.225-31.345h-7.938l-7.857,15.064
		c-2.105,4.131-4.049,7.695-5.507,11.259h-0.162c-1.701-3.807-3.401-7.128-5.427-11.259l-7.694-15.064h-8.1l17.333,31.426v23.164
		H1639.043z M1594.332,286.162l19.52-54.59h-7.533l-9.232,26.971c-2.512,7.128-4.698,14.012-6.237,20.33h-0.161
		c-1.539-6.398-3.564-13.04-5.832-20.411l-8.504-26.89h-7.695l17.9,54.59H1594.332z M1540.548,236.351
		c11.744,0,17.413,11.34,17.413,22.273c0,12.393-6.316,22.679-17.494,22.679s-17.494-10.448-17.494-22.192
		C1522.973,247.204,1528.804,236.351,1540.548,236.351z M1540.791,230.601c-14.579,0-25.271,11.339-25.271,28.672
		c0,16.522,10.044,27.78,24.542,27.78c13.93,0,25.351-10.043,25.351-28.752C1565.413,242.021,1555.774,230.601,1540.791,230.601z
		 M1471.862,237.485c1.862-0.405,4.616-0.729,8.261-0.729c14.903,0,22.193,8.181,22.111,21.059c0,14.74-8.1,23.164-23.244,23.164
		c-2.754,0-5.346-0.081-7.128-0.324V237.485z M1464.815,286c3.563,0.405,7.694,0.648,12.798,0.648
		c10.609,0,19.033-2.754,24.217-7.856c5.021-5.021,7.855-12.312,7.855-21.221c0-8.828-2.834-15.146-7.775-19.601
		c-4.777-4.373-11.986-6.804-22.111-6.804c-5.588,0-10.69,0.486-14.983,1.216V286z M1425.53,263.484l5.345-15.794
		c1.135-3.321,1.944-6.723,2.754-9.882h0.162c0.811,3.159,1.62,6.398,2.835,9.963l5.427,15.713H1425.53z M1443.43,268.991
		l5.832,17.171h7.531l-18.628-54.59h-8.423l-18.629,54.59h7.289l5.67-17.171H1443.43z M1376.932,286.162h30.454v-5.912h-23.326
		v-48.678h-7.128V286.162z M1333.111,286.162h7.047v-20.815l5.265-5.993l17.899,26.809h8.342l-21.301-31.426l19.762-23.164h-8.746
		l-16.686,20.491c-1.377,1.782-2.834,3.726-4.293,5.832h-0.242v-26.323h-7.047V286.162z M1321.446,254.736h-21.14v-17.251h22.436
		v-5.913h-29.563v54.59h30.777v-5.912h-23.65v-19.682h21.14V254.736z M1267.664,228.414l8.261-9.233h-5.751l-5.102,5.588h-0.162
		l-5.184-5.588h-5.994l8.504,9.233H1267.664z M1256.729,237.242c1.215-0.324,3.563-0.567,6.966-0.567
		c7.451,0,12.554,3.078,12.554,10.124c0,6.237-4.778,10.367-12.312,10.367h-7.208V237.242z M1249.683,286.162h7.047v-23.65h6.642
		c6.398,0.243,9.395,3.078,11.015,10.61c1.458,6.804,2.673,11.42,3.563,13.04h7.29c-1.134-2.105-2.431-7.37-4.212-14.983
		c-1.296-5.67-3.807-9.558-7.938-11.016v-0.243c5.67-1.943,10.205-6.723,10.205-13.85c0-4.293-1.619-8.019-4.293-10.448
		c-3.32-2.997-8.261-4.455-15.793-4.455c-4.779,0-9.963,0.486-13.526,1.135V286.162z M1213.638,237.323
		c1.215-0.324,3.563-0.567,6.642-0.567c7.694,0,12.878,3.482,12.878,10.772c0,7.37-5.184,11.582-13.688,11.582
		c-2.349,0-4.293-0.162-5.831-0.567V237.323z M1206.591,286.162h7.047v-21.868c1.62,0.405,3.563,0.485,5.669,0.485
		c6.885,0,12.879-2.024,16.686-5.993c2.754-2.835,4.211-6.723,4.211-11.663c0-4.859-1.862-8.828-4.778-11.42
		c-3.239-2.916-8.343-4.536-15.308-4.536c-5.67,0-10.125,0.486-13.526,1.054V286.162z"/>
	<path fill="#595959" d="M1637.828,336.451c2.43,0,3.969,1.944,3.969,4.293c0,2.43-1.539,4.293-3.887,4.293
		c-2.35,0-3.889-2.025-3.889-4.131C1634.021,338.558,1635.398,336.451,1637.828,336.451z M1638.071,333.535
		c-5.103,0-8.181,3.321-8.181,7.371c0,3.969,3.24,7.127,8.1,7.127c4.697,0,8.019-3.077,8.019-7.127
		C1646.009,336.775,1642.932,333.535,1638.071,333.535z M1617.823,349.572v32.154c0,17.009,8.423,23.326,19.601,23.326
		c11.824,0,20.653-6.803,20.653-23.568v-31.912h-7.128v32.397c0,11.987-5.264,17.333-13.283,17.333
		c-7.289,0-12.715-5.184-12.715-17.333v-32.397H1617.823z M1588.015,404.162h7.128v-48.596h16.685v-5.994h-40.416v5.994h16.604
		V404.162z M1530.992,404.162v-23.326c0-9.071-0.082-15.632-0.486-22.517l0.243-0.081c2.673,5.913,6.317,12.149,10.124,18.224
		l17.332,27.7h7.128v-54.59h-6.642v22.84c0,8.505,0.162,15.146,0.811,22.436l-0.243,0.081c-2.511-5.589-5.751-11.339-9.72-17.737
		l-17.413-27.619h-7.775v54.59H1530.992z M1512.686,372.736h-21.14v-17.251h22.435v-5.913h-29.563v54.59h30.777v-5.912h-23.649
		v-19.682h21.14V372.736z M1446.188,404.162h30.453v-5.912h-23.326v-48.678h-7.127V404.162z M1406.982,381.484l5.346-15.794
		c1.135-3.321,1.943-6.723,2.754-9.882h0.162c0.811,3.159,1.619,6.398,2.835,9.963l5.427,15.713H1406.982z M1424.883,386.991
		l5.831,17.171h7.532l-18.629-54.59h-8.423l-18.628,54.59h7.289l5.67-17.171H1424.883z M1375.877,404.162l19.52-54.59h-7.532
		l-9.233,26.971c-2.51,7.128-4.697,14.012-6.236,20.33h-0.162c-1.539-6.398-3.563-13.04-5.831-20.411l-8.505-26.89h-7.693
		l17.898,54.59H1375.877z M1336.676,349.572v54.59h7.127v-54.59H1336.676z M1311.32,404.162l19.52-54.59h-7.532l-9.233,26.971
		c-2.51,7.128-4.697,14.012-6.236,20.33h-0.162c-1.539-6.398-3.563-13.04-5.831-20.411l-8.505-26.89h-7.693l17.898,54.59H1311.32z
		 M1246.442,404.162h7.046v-20.815l5.265-5.993l17.899,26.809h8.343l-21.302-31.426l19.763-23.164h-8.747l-16.685,20.491
		c-1.377,1.782-2.835,3.726-4.293,5.832h-0.243v-26.323h-7.046V404.162z M1234.777,372.736h-21.14v-17.251h22.435v-5.913h-29.563
		v54.59h30.777v-5.912h-23.649v-19.682h21.14V372.736z"/>
</g>
</svg>
