<?xml version="1.0" encoding="utf-8"?>
<!-- Generator: Adobe Illustrator 14.0.0, SVG Export Plug-In . SVG Version: 6.00 Build 43363)  -->
<!DOCTYPE svg PUBLIC "-//W3C//DTD SVG 1.1//EN" "http://www.w3.org/Graphics/SVG/1.1/DTD/svg11.dtd">
<svg version="1.1" id="Vrstva_1" xmlns="http://www.w3.org/2000/svg" xmlns:xlink="http://www.w3.org/1999/xlink" x="0px" y="0px"
	 width="1671.669px" height="523.667px" viewBox="0 0 1671.669 523.667" enable-background="new 0 0 1671.669 523.667"
	 xml:space="preserve">
<g>
	<path d="M1004.643,286.793c0,7.8-1.801,18-4.201,25.8c-12,36.001-41.4,57.001-75.6,57.001c-58.201,0-85.801-49.801-85.801-108.001
		c0-64.801,33-111.001,87.6-111.001c39.602,0,67.201,27.6,75.602,60c1.799,6.601,2.4,14.4,2.4,21.601V286.793z M1004.643,523.795
		h52.199V194.392c0-30,1.201-55.8,2.4-79.801h-49.801l-1.799,43.801h-1.201c-14.4-27.601-44.4-49.801-89.4-49.801
		c-61.201,0-131.402,47.4-131.402,156.602c0,88.201,55.201,146.401,123.002,146.401c46.801,0,78.602-22.8,94.801-51h1.201V523.795z
		 M536.045,231.593c4.2-36.601,27.001-85.201,81-85.201c59.402,0,73.801,52.2,73.201,85.201H536.045z M739.448,269.393
		c1.199-6,1.799-13.8,1.799-24.6c0-53.401-24.6-136.202-120-136.202c-84.601,0-136.202,68.401-136.202,156.002
		s53.4,147.001,142.801,147.001c46.201,0,78.602-10.199,97.201-18.6l-9.6-37.801c-19.201,8.4-42.602,15-80.4,15
		c-53.402,0-98.402-29.399-99.602-100.801H739.448z M315.844,404.994h52.801V250.192c0-8.4,0.6-17.4,1.8-24.6
		c7.2-39.601,33.601-67.201,70.801-67.201c7.2,0,12.6,0,18,1.2v-49.801c-4.8-0.6-9-1.2-14.4-1.2
		c-35.4,0-67.801,24.601-81.001,63.601h-1.8l-2.4-57.601h-46.201c1.8,27.001,2.4,56.401,2.4,90.602V404.994z M123.248,404.994h52.8
		V44.99h123.602V0.59H0.246v44.4h123.001V404.994z"/>
	<polygon fill="#009EE0" points="949.845,0.548 353.27,0.548 353.27,74.513 1058.161,74.513 1058.161,74.203 	"/>
	<polygon fill="#53AA28" points="232.376,523.763 950.667,523.763 950.667,449.863 123.152,449.863 	"/>
	<path fill="#595959" d="M1637.342,169.024v-23.326c0-9.071-0.082-15.632-0.486-22.517l0.243-0.081
		c2.673,5.913,6.317,12.149,10.124,18.224l17.332,27.7h7.128v-54.59h-6.642v22.84c0,8.505,0.162,15.146,0.811,22.436l-0.243,0.081
		c-2.511-5.589-5.751-11.339-9.72-17.737l-17.413-27.619h-7.775v54.59H1637.342z M1596.679,119.213
		c11.744,0,17.413,11.34,17.413,22.273c0,12.393-6.316,22.679-17.494,22.679s-17.494-10.448-17.494-22.192
		C1579.104,130.066,1584.935,119.213,1596.679,119.213z M1596.922,113.463c-14.579,0-25.271,11.339-25.271,28.672
		c0,16.522,10.044,27.78,24.542,27.78c13.93,0,25.351-10.043,25.351-28.752C1621.544,124.883,1611.906,113.463,1596.922,113.463z
		 M1555.452,114.435v54.59h7.128v-54.59H1555.452z M1525.644,169.024h7.127v-48.596h16.685v-5.994h-40.416v5.994h16.604V169.024z
		 M1482.228,146.347l5.345-15.794c1.135-3.321,1.944-6.723,2.754-9.882h0.162c0.811,3.159,1.62,6.398,2.835,9.963l5.427,15.713
		H1482.228z M1500.127,151.854l5.832,17.171h7.531l-18.628-54.59h-8.423l-18.629,54.59h7.289l5.67-17.171H1500.127z
		 M1433.629,169.024h30.454v-5.912h-23.326v-48.678h-7.128V169.024z M1391.024,166.352c2.916,1.944,8.666,3.563,13.932,3.563
		c12.877,0,19.033-7.37,19.033-15.793c0-8.019-4.617-12.474-13.85-16.037c-7.533-2.916-10.854-5.427-10.854-10.529
		c0-3.726,2.835-8.181,10.286-8.181c4.94,0,8.585,1.539,10.286,2.592l1.943-5.75c-2.348-1.377-6.479-2.673-11.986-2.673
		c-10.61,0-17.656,6.317-17.656,14.821c0,7.614,5.507,12.312,14.416,15.551c7.371,2.754,10.287,5.751,10.287,10.772
		c0,5.508-4.213,9.314-11.421,9.314c-4.859,0-9.396-1.539-12.554-3.563L1391.024,166.352z M1347.122,169.024v-23.326
		c0-9.071-0.08-15.632-0.485-22.517l0.243-0.081c2.673,5.913,6.317,12.149,10.124,18.224l17.333,27.7h7.127v-54.59h-6.642v22.84
		c0,8.505,0.162,15.146,0.81,22.436l-0.242,0.081c-2.511-5.589-5.751-11.339-9.719-17.737l-17.414-27.619h-7.775v54.59H1347.122z
		 M1301.196,146.347l5.345-15.794c1.134-3.321,1.944-6.723,2.754-9.882h0.162c0.81,3.159,1.62,6.398,2.835,9.963l5.426,15.713
		H1301.196z M1319.094,151.854l5.832,17.171h7.532l-18.628-54.59h-8.424l-18.629,54.59h7.29l5.669-17.171H1319.094z
		 M1253.973,120.104c1.215-0.324,3.564-0.567,6.966-0.567c7.451,0,12.554,3.078,12.554,10.124c0,6.237-4.778,10.367-12.311,10.367
		h-7.209V120.104z M1246.927,169.024h7.046v-23.65h6.642c6.398,0.243,9.396,3.078,11.015,10.61c1.459,6.804,2.674,11.42,3.564,13.04
		h7.289c-1.134-2.105-2.43-7.37-4.211-14.983c-1.297-5.67-3.807-9.558-7.938-11.016v-0.243c5.67-1.943,10.205-6.723,10.205-13.85
		c0-4.293-1.62-8.019-4.293-10.448c-3.32-2.997-8.262-4.455-15.793-4.455c-4.779,0-9.963,0.486-13.526,1.135V169.024z
		 M1217.038,169.024h7.128v-48.596h16.685v-5.994h-40.416v5.994h16.604V169.024z"/>
	<path fill="#595959" d="M1632.645,284.352c2.916,1.944,8.666,3.563,13.931,3.563c12.878,0,19.034-7.37,19.034-15.793
		c0-8.019-4.617-12.474-13.851-16.037c-7.532-2.916-10.853-5.427-10.853-10.529c0-3.726,2.834-8.181,10.285-8.181
		c4.941,0,8.586,1.539,10.287,2.592l1.943-5.75c-2.349-1.377-6.479-2.673-11.986-2.673c-10.611,0-17.657,6.317-17.657,14.821
		c0,7.614,5.508,12.312,14.417,15.551c7.37,2.754,10.286,5.751,10.286,10.772c0,5.508-4.212,9.314-11.42,9.314
		c-4.86,0-9.396-1.539-12.554-3.563L1632.645,284.352z M1605.996,287.024h7.127v-48.596h16.685v-5.994h-40.416v5.994h16.604V287.024
		z M1548.972,287.024v-23.326c0-9.071-0.081-15.632-0.485-22.517l0.242-0.081c2.673,5.913,6.318,12.149,10.125,18.224l17.332,27.7
		h7.127v-54.59h-6.641v22.84c0,8.505,0.162,15.146,0.81,22.436l-0.243,0.081c-2.511-5.589-5.75-11.339-9.719-17.737l-17.414-27.619
		h-7.775v54.59H1548.972z M1530.666,255.599h-21.14v-17.251h22.436v-5.913h-29.563v54.59h30.777v-5.912h-23.65v-19.682h21.14
		V255.599z M1464.168,287.024h30.453v-5.912h-23.326v-48.678h-7.127V287.024z M1424.963,264.347l5.346-15.794
		c1.134-3.321,1.943-6.723,2.754-9.882h0.162c0.81,3.159,1.619,6.398,2.834,9.963l5.427,15.713H1424.963z M1442.863,269.854
		l5.831,17.171h7.533l-18.629-54.59h-8.424l-18.628,54.59h7.29l5.669-17.171H1442.863z M1393.858,287.024l19.52-54.59h-7.532
		l-9.233,26.971c-2.511,7.128-4.697,14.012-6.236,20.33h-0.162c-1.539-6.398-3.564-13.04-5.832-20.411l-8.504-26.89h-7.694
		l17.899,54.59H1393.858z M1354.656,232.435v54.59h7.128v-54.59H1354.656z M1302.25,232.435v32.154
		c0,17.009,8.423,23.326,19.601,23.326c11.824,0,20.653-6.803,20.653-23.568v-31.912h-7.128v32.397
		c0,11.987-5.264,17.333-13.283,17.333c-7.289,0-12.715-5.184-12.715-17.333v-32.397H1302.25z M1268.228,282.165
		c-11.177,0-17.495-10.448-17.495-22.111c0-11.825,5.832-22.841,17.738-22.841c11.582,0,17.252,11.259,17.252,22.273
		C1285.723,271.879,1279.405,282.165,1268.228,282.165z M1293.579,289.13c-4.616-0.81-10.529-2.105-15.955-3.482v-0.324
		c9.071-3.239,15.551-12.148,15.551-26.241c0-16.118-9.639-27.619-24.541-27.619c-14.741,0-25.352,11.258-25.352,28.753
		c0,17.656,11.016,27.214,24.055,27.699c1.054,0,2.106,0.405,3.321,0.811c6.317,2.187,13.526,4.373,20.896,6.317L1293.579,289.13z
		 M1234.856,255.599h-21.139v-17.251h22.436v-5.913h-29.563v54.59h30.777v-5.912h-23.65v-19.682h21.139V255.599z"/>
	<path fill="#595959" d="M1548.163,373.599h-21.14v-17.251h22.435v-5.913h-29.563v54.59h30.777v-5.912h-23.649v-19.682h21.14
		V373.599z M1477.29,402.352c2.916,1.944,8.666,3.563,13.932,3.563c12.877,0,19.033-7.37,19.033-15.793
		c0-8.019-4.617-12.474-13.85-16.037c-7.533-2.916-10.854-5.427-10.854-10.529c0-3.726,2.835-8.181,10.286-8.181
		c4.94,0,8.585,1.539,10.286,2.592l1.943-5.75c-2.348-1.377-6.479-2.673-11.986-2.673c-10.61,0-17.656,6.317-17.656,14.821
		c0,7.614,5.507,12.312,14.416,15.551c7.371,2.754,10.287,5.751,10.287,10.772c0,5.508-4.213,9.314-11.421,9.314
		c-4.859,0-9.396-1.539-12.554-3.563L1477.29,402.352z M1440.758,382.347l5.346-15.794c1.134-3.321,1.943-6.723,2.754-9.882h0.162
		c0.81,3.159,1.619,6.398,2.834,9.963l5.427,15.713H1440.758z M1458.658,387.854l5.831,17.171h7.533l-18.629-54.59h-8.424
		l-18.628,54.59h7.29l5.669-17.171H1458.658z M1393.618,378.863h5.831c7.694,0,14.093,3.159,14.093,10.529
		c0,7.938-6.723,10.61-14.012,10.61c-2.512,0-4.455-0.081-5.912-0.324V378.863z M1393.618,355.942
		c1.133-0.243,2.996-0.486,6.236-0.486c7.127,0,11.906,2.592,11.906,8.909c0,5.265-4.375,9.233-11.744,9.233h-6.398V355.942z
		 M1386.571,404.862c2.349,0.324,6.074,0.648,10.934,0.648c8.91,0,15.064-1.62,18.791-5.103c2.834-2.592,4.697-6.237,4.697-10.935
		c0-8.1-6.074-12.392-11.258-13.607v-0.242c5.67-2.025,9.233-6.642,9.233-11.987c0-4.293-1.782-7.532-4.616-9.639
		c-3.321-2.753-7.857-3.969-14.903-3.969c-4.86,0-9.8,0.486-12.878,1.216V404.862z M1347.286,382.347l5.345-15.794
		c1.134-3.321,1.944-6.723,2.754-9.882h0.162c0.81,3.159,1.62,6.398,2.835,9.963l5.426,15.713H1347.286z M1365.184,387.854
		l5.832,17.171h7.532l-18.628-54.59h-8.424l-18.629,54.59h7.29l5.669-17.171H1365.184z M1313.184,405.024h7.128v-48.596h16.685
		v-5.994h-40.416v5.994h16.604V405.024z M1269.768,382.347l5.346-15.794c1.135-3.321,1.943-6.723,2.754-9.882h0.162
		c0.811,3.159,1.619,6.398,2.835,9.963l5.427,15.713H1269.768z M1287.668,387.854l5.831,17.171h7.532l-18.629-54.59h-8.423
		l-18.628,54.59h7.289l5.67-17.171H1287.668z M1213.717,356.348c1.863-0.405,4.616-0.729,8.262-0.729
		c14.902,0,22.191,8.181,22.111,21.059c0,14.74-8.1,23.164-23.246,23.164c-2.754,0-5.346-0.081-7.127-0.324V356.348z
		 M1206.67,404.862c3.564,0.405,7.695,0.648,12.797,0.648c10.61,0,19.033-2.754,24.217-7.856c5.022-5.021,7.857-12.312,7.857-21.221
		c0-8.828-2.835-15.146-7.775-19.601c-4.779-4.373-11.987-6.804-22.111-6.804c-5.589,0-10.691,0.486-14.984,1.216V404.862z"/>
</g>
</svg>
